<svg width="147" height="144" viewBox="0 0 147 144" fill="none" xmlns="http://www.w3.org/2000/svg">
<g filter="url(#filter0_d_894_2487)">
<path d="M113.626 0H33.3737C17.151 0 4 12.8672 4 28.7397V107.26C4 123.132 17.151 136 33.3737 136H113.626C129.849 136 143 123.132 143 107.26V28.7397C143 12.8672 129.849 0 113.626 0Z" fill="url(#paint0_linear_894_2487)"/>
</g>
<path d="M100.474 37.5637C98.326 37.1974 96.1513 37.0089 93.9722 37C86.5371 36.994 79.2572 39.105 73 43.0815C66.7268 39.1572 59.4479 37.098 52.0278 37.1483C49.8487 37.1572 47.674 37.3457 45.5265 37.712C44.823 37.8321 44.186 38.1969 43.7301 38.7408C43.2742 39.2846 43.0294 39.9718 43.0398 40.6786V76.2774C43.0333 76.7133 43.124 77.1452 43.3053 77.5425C43.4867 77.9397 43.7542 78.2925 44.0889 78.5757C44.4236 78.859 44.8172 79.0657 45.2417 79.1812C45.6662 79.2967 46.1113 79.3181 46.5451 79.244C50.8385 78.5079 55.2372 78.63 59.4821 79.6031C63.7271 80.5762 67.7325 82.3807 71.2623 84.9101L71.6218 85.1178H71.9514C72.2837 85.2548 72.64 85.3254 73 85.3254C73.36 85.3254 73.7163 85.2548 74.0486 85.1178H74.3782L74.7377 84.9101C78.2429 82.3241 82.2368 80.4612 86.4826 79.4319C90.7283 78.4025 95.1396 78.2277 99.4549 78.9176C99.8887 78.9918 100.334 78.9704 100.758 78.8549C101.183 78.7394 101.576 78.5326 101.911 78.2494C102.246 77.9662 102.513 77.6134 102.695 77.2161C102.876 76.8189 102.967 76.3869 102.96 75.9511V40.3522C102.929 39.6763 102.665 39.0313 102.213 38.5241C101.761 38.0168 101.147 37.678 100.474 37.5637ZM70.004 76.9894C64.461 74.102 58.2911 72.595 52.0278 72.5988C51.0391 72.5988 50.0505 72.5988 49.0318 72.5988V42.9332C50.0296 42.8762 51.03 42.8762 52.0278 42.9332C58.4195 42.9262 64.6717 44.7834 70.004 48.273V76.9894ZM96.9682 72.7175C95.9495 72.7175 94.9609 72.7175 93.9722 72.7175C87.7089 72.7137 81.539 74.2206 75.996 77.108V48.273C81.3283 44.7834 87.5805 42.9262 93.9722 42.9332C94.97 42.8762 95.9704 42.8762 96.9682 42.9332V72.7175ZM100.474 85.0288C98.326 84.6625 96.1513 84.474 93.9722 84.4651C86.5371 84.4591 79.2572 86.5701 73 90.5466C66.7428 86.5701 59.4629 84.4591 52.0278 84.4651C49.8487 84.474 47.674 84.6625 45.5265 85.0288C45.1365 85.09 44.7625 85.2271 44.4262 85.4319C44.0899 85.6368 43.7977 85.9055 43.5667 86.2225C43.3356 86.5396 43.17 86.8987 43.0796 87.2793C42.9892 87.66 42.9756 88.0545 43.0398 88.4403C43.192 89.2107 43.6464 89.8899 44.3034 90.3292C44.9605 90.7685 45.7666 90.932 46.5451 90.7839C50.8385 90.0479 55.2372 90.17 59.4821 91.1431C63.7271 92.1162 67.7325 93.9206 71.2623 96.4501C71.7697 96.8078 72.3771 97 73 97C73.6229 97 74.2303 96.8078 74.7377 96.4501C78.2675 93.9206 82.2729 92.1162 86.5179 91.1431C90.7628 90.17 95.1615 90.0479 99.4549 90.7839C100.233 90.932 101.04 90.7685 101.697 90.3292C102.354 89.8899 102.808 89.2107 102.96 88.4403C103.024 88.0545 103.011 87.66 102.92 87.2793C102.83 86.8987 102.664 86.5396 102.433 86.2225C102.202 85.9055 101.91 85.6368 101.574 85.4319C101.237 85.2271 100.864 85.09 100.474 85.0288Z" fill="white"/>
<defs>
<filter id="filter0_d_894_2487" x="0" y="0" width="147" height="144" filterUnits="userSpaceOnUse" color-interpolation-filters="sRGB">
<feFlood flood-opacity="0" result="BackgroundImageFix"/>
<feColorMatrix in="SourceAlpha" type="matrix" values="0 0 0 0 0 0 0 0 0 0 0 0 0 0 0 0 0 0 127 0" result="hardAlpha"/>
<feOffset dy="4"/>
<feGaussianBlur stdDeviation="2"/>
<feComposite in2="hardAlpha" operator="out"/>
<feColorMatrix type="matrix" values="0 0 0 0 0 0 0 0 0 0 0 0 0 0 0 0 0 0 0.25 0"/>
<feBlend mode="normal" in2="BackgroundImageFix" result="effect1_dropShadow_894_2487"/>
<feBlend mode="normal" in="SourceGraphic" in2="effect1_dropShadow_894_2487" result="shape"/>
</filter>
<linearGradient id="paint0_linear_894_2487" x1="13.0475" y1="1.80172" x2="130.917" y2="134.547" gradientUnits="userSpaceOnUse">
<stop stop-color="#161616"/>
<stop offset="1" stop-color="#121212"/>
</linearGradient>
</defs>
</svg>
